<svg xmlns="http://www.w3.org/2000/svg" width="485.943" height="402.773" viewBox="0 0 485.943 402.773">
  <g transform="translate(-719.057 -387)">
    <path id="_404-01" data-name="404-01" d="M517.537,140.861H86.524c-14.894,0-22.685,15.219-22.685,30.246V518.949c0,14.621,8.057,22.685,22.685,22.685H517.536c15.028,0,30.246-7.8,30.246-22.685V171.107C547.783,156.409,532.239,140.861,517.537,140.861ZM532.66,518.949c0,5.214-8.847,7.554-15.124,7.554H86.524c-6.358,0-7.562-1.2-7.562-7.554V239.779c.509.111.982-.613,1.521-.613H532.659V518.949Zm0-294.907H80.484c-.539,0-1.012,1.119-1.521,1.226V171.107c0-6.273,2.348-15.119,7.562-15.119H517.537c6.358,0,15.124,8.765,15.124,15.119v52.935ZM121.105,418.817c1.027.812,2.282,1.831,3.692,1.831h67.59v37.808h15.123V420.648h21.252c1.433,0,1.108-1.152,1.78-1.935.694-.8-.347-2.526-.347-3.663v-9.526H207.511V307.216H191.886l-74.686,98.5,1.92,9.445A7.151,7.151,0,0,0,121.105,418.817Zm72.493-89.99a55.879,55.879,0,0,0-.819,5.948c-.1,2.142-.391,4.147-.391,6.011v64.739h-54.5Zm57.568,113.228A47.851,47.851,0,0,0,268.8,456.426a53.506,53.506,0,0,0,43.841,0,47.91,47.91,0,0,0,17.738-14.371q7.5-9.636,11.823-24.375,4.341-14.754,4.342-34.9T342.2,347.845q-4.32-14.787-11.823-24.483a47.512,47.512,0,0,0-17.738-14.418,53.237,53.237,0,0,0-43.841,0,47.446,47.446,0,0,0-17.634,14.418q-7.5,9.709-11.785,24.483c-2.88,9.862-4.283,21.514-4.283,34.936,0,13.439,1.4,25.062,4.283,34.9Q243.669,432.411,251.166,442.055Zm6.6-88.793q2.947-11.947,7.879-19.24a29.447,29.447,0,0,1,11.468-10.456,30.946,30.946,0,0,1,27.219,0,29.878,29.878,0,0,1,11.52,10.456q4.974,7.289,7.938,19.24,2.948,11.946,2.939,29.519,0,17.59-2.939,29.478-2.979,11.9-7.938,19.185a29.731,29.731,0,0,1-11.52,10.456,30.946,30.946,0,0,1-27.219,0,29.312,29.312,0,0,1-11.468-10.456q-4.94-7.289-7.879-19.185-2.968-11.9-2.954-29.478Q254.815,365.224,257.768,353.262Zm94.846,65.555c1.034.812,2.266,1.831,3.692,1.831H426.8v37.808h15.123V420.648h18.358a4.665,4.665,0,0,0,3.234-1.935,6.7,6.7,0,0,0,1.093-3.663v-9.526H441.922V307.216H423.4l-74.716,98.5,1.927,9.445A7.112,7.112,0,0,0,352.614,418.817Zm73.215-89.99c-.354,2.282.008,3.807-.088,5.948-.119,2.142,1.056,4.147,1.056,6.011v64.739H369.376ZM110.952,181.741a10.165,10.165,0,1,0,10.161,10.168A10.153,10.153,0,0,0,110.952,181.741Zm40.629,0a10.165,10.165,0,1,0,10.161,10.168A10.153,10.153,0,0,0,151.581,181.741Zm40.629,0a10.165,10.165,0,1,0,10.161,10.168A10.153,10.153,0,0,0,192.21,181.741Z" transform="translate(656.218 247.139)" fill="#1b9c85"/>
    <path id="_404-01_-_Outline" data-name="404-01 - Outline" d="M86.524,139.861H517.537a26.285,26.285,0,0,1,11.36,2.757,37.574,37.574,0,0,1,17.129,17.131,26.284,26.284,0,0,1,2.756,11.359V518.949a20.092,20.092,0,0,1-2.751,10.332,23.1,23.1,0,0,1-7.18,7.424,33.82,33.82,0,0,1-9.987,4.443,43.139,43.139,0,0,1-11.328,1.486H86.524a30.456,30.456,0,0,1-10.046-1.545,18.968,18.968,0,0,1-12.1-12.1,30.461,30.461,0,0,1-1.543-10.043V171.107a43.161,43.161,0,0,1,1.485-11.328,33.814,33.814,0,0,1,4.441-9.987,23.091,23.091,0,0,1,7.423-7.18A20.1,20.1,0,0,1,86.524,139.861ZM517.536,540.634c14.534,0,29.246-7.449,29.246-21.685V171.107c0-6.743-3.4-14.007-9.316-19.928s-13.185-9.318-19.93-9.318H86.524c-14.236,0-21.685,14.713-21.685,29.246V518.949c0,13.984,7.7,21.685,21.685,21.685ZM86.525,154.988H517.537c3.245,0,7.228,2.045,10.653,5.47s5.471,7.406,5.471,10.65v53.935H80.671c-.073.075-.171.19-.243.275a2.38,2.38,0,0,1-1.259.93l-1.206.254V171.107a28.406,28.406,0,0,1,1.9-10.294,12.023,12.023,0,0,1,2.582-4.062A5.733,5.733,0,0,1,86.525,154.988Zm445.136,68.054V171.107c0-5.806-8.316-14.119-14.124-14.119H86.525c-2.409,0-3.946,2.5-4.812,4.589a26.308,26.308,0,0,0-1.75,9.53V223.14a1.428,1.428,0,0,1,.521-.1Zm-420.709-42.3a11.153,11.153,0,1,1-7.889,3.269A11.086,11.086,0,0,1,110.952,180.741Zm0,20.329a9.165,9.165,0,1,0-9.153-9.161A9.172,9.172,0,0,0,110.952,201.071Zm40.629-20.329a11.153,11.153,0,1,1-7.889,3.269A11.087,11.087,0,0,1,151.581,180.741Zm0,20.329a9.165,9.165,0,1,0-9.153-9.161A9.172,9.172,0,0,0,151.581,201.071Zm40.629-20.329a11.153,11.153,0,1,1-7.889,3.269A11.087,11.087,0,0,1,192.21,180.741Zm0,20.329a9.165,9.165,0,1,0-9.153-9.161A9.172,9.172,0,0,0,192.21,201.071Zm-111.726,37.1H533.659V518.949a5.73,5.73,0,0,1-1.764,4.077,12.016,12.016,0,0,1-4.063,2.579,28.457,28.457,0,0,1-10.3,1.9H86.524c-3.2,0-5.465-.282-6.872-1.688s-1.69-3.67-1.69-6.866V238.537l1.061.231c.054-.033.121-.078.172-.112A2.273,2.273,0,0,1,80.483,238.166Zm451.176,2H80.548c-.06.031-.164.1-.236.149-.1.069-.219.148-.35.22V518.949c0,3.129.309,4.658,1.1,5.451s2.325,1.1,5.458,1.1H517.537a26.36,26.36,0,0,0,9.534-1.746c2.076-.857,4.548-2.374,4.589-4.748V240.166ZM290.725,303.222a53.108,53.108,0,0,1,22.334,4.814A48.629,48.629,0,0,1,331.17,322.75a63.282,63.282,0,0,1,6.815,11.149,88.772,88.772,0,0,1,5.176,13.666,103.476,103.476,0,0,1,3.289,16.29,164.325,164.325,0,0,1,0,37.85,102.936,102.936,0,0,1-3.289,16.257,88.174,88.174,0,0,1-5.176,13.616,62.426,62.426,0,0,1-6.817,11.092,49.078,49.078,0,0,1-18.105,14.663,51.4,51.4,0,0,1-10.814,3.6,56.808,56.808,0,0,1-23.113,0,50.233,50.233,0,0,1-10.759-3.6,46.621,46.621,0,0,1-9.69-6.089,52.757,52.757,0,0,1-8.311-8.574,62.039,62.039,0,0,1-6.806-11.092,87.758,87.758,0,0,1-5.15-13.617,102.4,102.4,0,0,1-3.254-16.256,168.008,168.008,0,0,1,0-37.845,102.952,102.952,0,0,1,3.254-16.292A88.3,88.3,0,0,1,243.57,333.9a62.873,62.873,0,0,1,6.805-11.15,52.939,52.939,0,0,1,8.311-8.619,45.633,45.633,0,0,1,9.694-6.095,51.239,51.239,0,0,1,10.754-3.607A55.047,55.047,0,0,1,290.725,303.222Zm0,156.9a50.856,50.856,0,0,0,21.5-4.6,47.1,47.1,0,0,0,17.367-14.077c4.9-6.3,8.821-14.385,11.653-24.043,2.854-9.7,4.3-21.348,4.3-34.617s-1.447-24.928-4.3-34.654c-2.827-9.674-6.748-17.8-11.654-24.153a46.649,46.649,0,0,0-17.365-14.121,52.238,52.238,0,0,0-43,0,46.647,46.647,0,0,0-17.264,14.123c-4.9,6.347-8.811,14.472-11.616,24.15-2.816,9.644-4.243,21.3-4.243,34.657s1.428,25,4.243,34.618c2.813,9.663,6.72,17.752,11.615,24.042a47.1,47.1,0,0,0,17.268,14.079A50.4,50.4,0,0,0,290.725,460.122ZM191.389,306.216h17.122v98.309H231.2v10.526a5.242,5.242,0,0,0,.251,1.163c.286,1,.641,2.243-.147,3.152a1.9,1.9,0,0,0-.268.561,2.206,2.206,0,0,1-2.27,1.721H208.511v37.808H191.388V421.648H124.8c-1.728,0-3.124-1.105-4.245-1.993l-.075-.06a8.187,8.187,0,0,1-2.329-4.195l-.009-.039-2.01-9.888.273-.36Zm15.122,2H192.382l-74.113,97.745,1.826,8.981a6.314,6.314,0,0,0,1.635,3.094l.065.051a5.582,5.582,0,0,0,3,1.561h68.59v37.808h13.123V419.648h22.252a.772.772,0,0,0,.23-.025,2.408,2.408,0,0,0,.16-.38,3.584,3.584,0,0,1,.62-1.168,4.24,4.24,0,0,0-.249-1.311,6.434,6.434,0,0,1-.328-1.713v-8.526H206.511Zm216.394-2h20.017v98.309h22.685v10.526a7.586,7.586,0,0,1-1.329,4.307l-.006.007c-.485.565-1.961,2.283-3.993,2.283H442.921v37.808H425.8V421.648H356.306a6.98,6.98,0,0,1-4.182-1.945l-.132-.1a8.217,8.217,0,0,1-2.349-4.195l-.01-.044-2.018-9.888.274-.361Zm18.017,2H423.9L349.756,405.96l1.832,8.978a6.221,6.221,0,0,0,1.649,3.1l.124.1a5.447,5.447,0,0,0,2.945,1.516H427.8v37.808h13.123V419.648h19.358a3.605,3.605,0,0,0,2.474-1.584,5.809,5.809,0,0,0,.854-3.014v-8.526H440.922Zm-150.2,11.2a32.448,32.448,0,0,1,14.039,3.25,30.94,30.94,0,0,1,11.915,10.8,47.414,47.414,0,0,1,4.567,8.638,79.042,79.042,0,0,1,3.516,10.923c1.97,7.984,2.969,18,2.969,29.761s-1,21.767-2.969,29.719a78.768,78.768,0,0,1-3.517,10.886,47.583,47.583,0,0,1-4.566,8.623A30.807,30.807,0,0,1,304.768,442.8a33.16,33.16,0,0,1-6.882,2.439,31.945,31.945,0,0,1-21.205-2.44A30.4,30.4,0,0,1,264.818,432a47.669,47.669,0,0,1-4.533-8.619A78.646,78.646,0,0,1,256.8,412.5a95.239,95.239,0,0,1-2.243-13.457c-.491-4.911-.74-10.382-.74-16.262,0-11.783,1-21.8,2.983-29.76,1.988-8.058,4.687-14.639,8.022-19.56a30.514,30.514,0,0,1,11.863-10.8A32.349,32.349,0,0,1,290.725,319.413Zm0,124.642a29.755,29.755,0,0,0,6.709-.761A31.157,31.157,0,0,0,303.9,441a28.849,28.849,0,0,0,11.127-10.118c3.219-4.717,5.841-11.064,7.794-18.865,1.93-7.792,2.909-17.629,2.909-29.236s-.979-21.455-2.91-29.28c-1.954-7.837-4.576-14.2-7.793-18.916A28.978,28.978,0,0,0,303.9,324.467a29.947,29.947,0,0,0-26.354,0,28.557,28.557,0,0,0-11.071,10.114c-3.2,4.726-5.806,11.091-7.737,18.92-1.94,7.809-2.924,17.66-2.925,29.28s.984,21.46,2.924,29.236c1.93,7.793,4.533,14.14,7.737,18.866A28.442,28.442,0,0,0,277.548,441,30.069,30.069,0,0,0,290.725,444.054Zm134.3-115.82,1.794.746a16.184,16.184,0,0,0-.105,3.428c.033.75.067,1.525.028,2.411v.011a9.445,9.445,0,0,0,.515,3.023,11.019,11.019,0,0,1,.543,2.933v65.739H367.4Zm-.282,6.5c.036-.8,0-1.527-.028-2.232q-.01-.22-.019-.442l-53.342,72.471H425.8V340.787a9.461,9.461,0,0,0-.469-2.393A11.279,11.279,0,0,1,424.742,334.73Zm-231.953-6.49,1.8.744c-.088.552-.172,1.054-.254,1.54a36.99,36.99,0,0,0-.554,4.3c-.042.932-.12,1.832-.2,2.7-.1,1.148-.194,2.232-.194,3.257v65.739H135.928Zm-1.4,76.286V340.787c0-1.112.1-2.238.2-3.43.074-.852.151-1.733.191-2.626v-.014c.041-.692.1-1.322.178-1.931l-52.106,71.74Z" transform="translate(656.218 247.139)" fill="#232334"/>
  </g>
</svg>
