<svg xmlns="http://www.w3.org/2000/svg" width="43.988" height="42.889" viewBox="0 0 43.988 42.889">
  <path id="Icon_awesome-github" data-name="Icon awesome-github" d="M14.713,35.1c0,.177-.2.319-.461.319-.293.027-.5-.115-.5-.319,0-.177.2-.319.461-.319C14.482,34.751,14.713,34.892,14.713,35.1Zm-2.758-.4c-.062.177.115.381.381.435a.416.416,0,0,0,.55-.177c.053-.177-.115-.381-.381-.461A.455.455,0,0,0,11.955,34.7Zm3.92-.151c-.257.062-.435.231-.408.435.027.177.257.293.523.231s.435-.231.408-.408S16.132,34.52,15.875,34.547ZM21.71.563A21.266,21.266,0,0,0,0,22.2,22.234,22.234,0,0,0,15.032,43.415c1.135.2,1.534-.5,1.534-1.073,0-.55-.027-3.583-.027-5.445,0,0-6.208,1.33-7.512-2.643,0,0-1.011-2.581-2.465-3.246,0,0-2.031-1.392.142-1.366a4.681,4.681,0,0,1,3.423,2.288c1.942,3.423,5.2,2.439,6.465,1.854A4.929,4.929,0,0,1,18.012,30.8c-4.957-.55-9.959-1.268-9.959-9.8a6.721,6.721,0,0,1,2.093-5.224,8.379,8.379,0,0,1,.231-6.022c1.854-.576,6.119,2.394,6.119,2.394a20.951,20.951,0,0,1,11.139,0S31.9,9.165,33.754,9.75a8.375,8.375,0,0,1,.231,6.022c1.419,1.57,2.288,2.794,2.288,5.224,0,8.558-5.224,9.241-10.181,9.8A5.245,5.245,0,0,1,27.6,34.91c0,2.989-.027,6.687-.027,7.414,0,.576.408,1.277,1.534,1.073A22.029,22.029,0,0,0,43.988,22.2C43.988,9.9,34.011.563,21.71.563ZM8.62,31.15c-.115.089-.089.293.062.461.142.142.346.2.461.089.115-.089.089-.293-.062-.461C8.939,31.1,8.735,31.035,8.62,31.15Zm-.958-.718c-.062.115.027.257.2.346a.264.264,0,0,0,.381-.062c.062-.115-.027-.257-.2-.346C7.866,30.316,7.724,30.343,7.662,30.432Zm2.873,3.157c-.142.115-.089.381.115.55.2.2.461.231.576.089.115-.115.062-.381-.115-.55C10.917,33.474,10.651,33.447,10.536,33.589Zm-1.011-1.3c-.142.089-.142.319,0,.523s.381.293.5.2a.4.4,0,0,0,0-.55C9.9,32.259,9.667,32.17,9.525,32.285Z" transform="translate(0 -0.563)" fill="#1b9c85"/>
</svg>
